<svg width="1920" height="1080" xmlns="http://www.w3.org/2000/svg"><path fill="#30b700" d="M0 0h1920v1080H0z"/><path d="M0 1080V180c23.256 34.915 46.513 69.83 192 53s413.205-85.408 546-86c132.795-.592 130.667 66.8 243 79 112.333 12.2 339.128-30.792 446-35 106.872-4.208 93.82 30.37 156 35 62.18 4.63 199.59-20.685 337-46v900Z" fill="#3d1053" opacity=".1"/><path d="M0 1080V360c50.313 34.72 100.626 69.441 212 66 111.374-3.441 283.81-45.044 430-60 146.19-14.956 266.133-3.267 398-11 131.867-7.733 275.656-34.89 337-51 61.344-16.11 40.241-21.174 117-10s251.38 38.587 426 66v720Z" fill="#3d1053" opacity=".2"/><path d="M0 1080V540c169.023-18.059 338.046-36.118 458-21 119.954 15.118 190.838 63.413 268 65 77.162 1.587 160.6-43.533 210-53 49.4-9.467 64.762 16.72 177 15 112.238-1.72 321.354-31.349 472-37 150.646-5.651 242.823 12.674 335 31v540Z" fill="#3d1053" opacity=".3"/><path d="M0 1080V720c128.295-1.69 256.59-3.38 312-5 55.41-1.62 37.936-3.172 176-20s431.667-48.933 557-38c125.333 10.933 82.397 64.905 131 79 48.603 14.095 188.744-11.687 328-21s277.628-2.156 416 5v360Z" fill="#3d1053" opacity=".4"/><path d="M0 1080V900c139.023 42.218 278.046 84.436 335 66 56.954-18.436 31.838-97.526 147-124 115.162-26.474 370.6-.333 490 33 119.4 33.333 102.762 73.859 208 65 105.238-8.859 332.354-67.103 476-82 143.646-14.897 203.823 13.551 264 42v180Z" fill="#3d1053" opacity=".5"/></svg>